<?xml version="1.0" encoding="UTF-8" standalone="no"?>
<!DOCTYPE svg PUBLIC "-//W3C//DTD SVG 1.1//EN" "http://www.w3.org/Graphics/SVG/1.1/DTD/svg11.dtd">
<svg width="100%" height="100%" viewBox="0 0 512 512" version="1.1" xmlns="http://www.w3.org/2000/svg" xmlns:xlink="http://www.w3.org/1999/xlink" xml:space="preserve" xmlns:serif="http://www.serif.com/" style="fill-rule:evenodd;clip-rule:evenodd;stroke-linejoin:round;stroke-miterlimit:2;">
    <g transform="matrix(1,0,0,1,0,-1200)">
        <g id="Artboard1" transform="matrix(0.213333,0,0,0.208724,0,1200)">
            <rect x="0" y="0" width="2400" height="2453" style="fill:none;"/>
            <g transform="matrix(5.124519,0,0,5.237686,-306.763391,-3401.202924)">
                <path d="M294.03,675.636C408.775,675.636 501.934,768.795 501.934,883.54C501.934,998.285 408.775,1091.443 294.03,1091.443C179.285,1091.443 86.127,998.285 86.127,883.54C86.127,768.795 179.285,675.636 294.03,675.636ZM294.03,699.419C192.411,699.419 109.909,781.921 109.909,883.54C109.909,985.159 192.411,1067.66 294.03,1067.66C395.649,1067.66 478.151,985.159 478.151,883.54C478.151,781.921 395.649,699.419 294.03,699.419Z"/>
            </g>
            <g transform="matrix(5.419706,0,0,7.835667,-177.494195,-5997.926888)">
                <path d="M299.297,1000.294L210.761,1000.294C204.556,1000.294 199.517,996.732 199.517,992.345C199.517,987.958 204.556,984.396 210.761,984.396L244.622,984.396L244.622,907.967L216.39,907.967C210.185,907.967 205.147,904.406 205.147,900.019C205.147,895.632 210.185,892.07 216.39,892.07L255.866,892.07C262.076,892.07 267.11,895.629 267.11,900.019L267.11,984.396L299.297,984.396C305.502,984.396 310.54,987.958 310.54,992.345C310.54,996.732 305.502,1000.294 299.297,1000.294Z"/>
            </g>
            <g transform="matrix(4.363666,0,0,4.460031,88.40052,-2635.522537)">
                <circle cx="250.948" cy="755.956" r="25.454"/>
            </g>
        </g>
    </g>
</svg>
