<?xml version="1.0" encoding="UTF-8" standalone="no"?>
<!DOCTYPE svg PUBLIC "-//W3C//DTD SVG 1.1//EN" "http://www.w3.org/Graphics/SVG/1.1/DTD/svg11.dtd">
<svg width="100%" height="100%" viewBox="0 0 512 512" version="1.1" xmlns="http://www.w3.org/2000/svg" xmlns:xlink="http://www.w3.org/1999/xlink" xml:space="preserve" xmlns:serif="http://www.serif.com/" style="fill-rule:evenodd;clip-rule:evenodd;stroke-linejoin:round;stroke-miterlimit:2;">
    <g transform="matrix(1,0,0,1,-599.98945,-1800)">
        <g id="Artboard1" transform="matrix(0.213333,0,0,0.208724,599.98945,1800)">
            <rect x="0" y="0" width="2400" height="2453" style="fill:none;"/>
            <g transform="matrix(8.5041,-0,-0,8.691899,-496.571889,-5360.335474)">
                <path d="M199.455,883.064C160.503,883.064 134.261,858.505 105.793,836.75C96.5,829.648 84.081,822.294 67.5,819.718C64.804,819.299 62.58,817.386 61.763,814.784C60.946,812.181 61.677,809.34 63.65,807.456C69.76,801.619 75.035,795.325 78.672,788.642L68.939,786.273C66.391,785.653 64.385,783.69 63.71,781.156C63.034,778.622 63.797,775.922 65.698,774.116C65.698,774.116 74.49,765.616 80.588,749.942C82.122,746.002 83.556,740.688 83.824,735.847C81.599,698.302 82.08,677.634 83.654,666.715C84.299,662.242 85.676,656.488 88.063,651.818C90.126,647.784 92.97,644.535 96.408,642.687C103.31,638.978 112.913,636.35 136.94,658.648C151.693,672.339 160.679,682.918 165.018,688.43C173.035,686.438 186.223,684.357 199.452,684.357C212.682,684.357 225.904,686.439 233.933,688.431C238.271,682.919 247.258,672.34 262.012,658.648C286.039,636.35 295.642,638.978 302.544,642.687C305.982,644.535 308.826,647.784 310.888,651.818C313.276,656.488 314.653,662.242 315.297,666.715C316.872,677.634 317.353,698.302 315.128,735.849C315.396,740.687 316.83,746.002 318.363,749.942C324.462,765.616 333.254,774.116 333.254,774.116C335.155,775.922 335.918,778.622 335.242,781.156C334.567,783.69 332.561,785.653 330.013,786.273L320.28,788.642C323.916,795.325 329.192,801.619 335.302,807.456C337.275,809.34 338.006,812.181 337.189,814.784C336.372,817.386 334.148,819.299 331.452,819.718C314.871,822.294 302.452,829.648 293.159,836.75C264.691,858.505 238.408,883.064 199.455,883.064ZM199.455,868.733C235.017,868.733 258.467,845.224 284.457,825.363C292.816,818.975 303.364,812.47 316.615,808.44C310.759,801.386 306.177,793.854 303.501,786.015C302.851,784.111 303.032,782.02 303.999,780.255C304.967,778.491 306.632,777.214 308.588,776.738L315.579,775.036C312.193,770.183 308.265,763.512 305.007,755.139C302.941,749.829 301.077,742.609 300.793,736.123C300.782,735.877 300.784,735.63 300.799,735.384C302.956,699.167 302.627,679.261 301.113,668.76C300.73,666.106 300.033,662.805 298.821,659.855C298.051,657.982 297.26,656.117 295.759,655.311C293.984,654.357 291.99,654.399 288.416,656.272C284.257,658.451 278.954,662.476 271.76,669.152C251.212,688.222 242.608,700.734 242.608,700.734C240.759,703.442 237.308,704.55 234.228,703.423C228.806,701.439 214.122,698.688 199.452,698.688C184.783,698.688 170.146,701.44 164.724,703.423C161.644,704.55 158.193,703.442 156.344,700.734C156.344,700.734 147.739,688.222 127.191,669.152C119.998,662.476 114.695,658.451 110.536,656.272C106.962,654.399 104.968,654.357 103.192,655.311C101.692,656.117 100.901,657.982 100.131,659.855C98.918,662.805 98.222,666.106 97.839,668.76C96.325,679.261 95.995,699.167 98.153,735.384C98.168,735.63 98.17,735.877 98.159,736.123C97.875,742.609 96.01,749.829 93.944,755.139C90.687,763.512 86.759,770.183 83.373,775.036L90.364,776.738C92.32,777.214 93.985,778.491 94.953,780.255C95.92,782.02 96.101,784.111 95.451,786.015C92.775,793.854 88.193,801.386 82.337,808.44C95.588,812.47 106.136,818.975 114.495,825.363C140.484,845.224 163.894,868.733 199.455,868.733Z"/>
            </g>
            <g transform="matrix(4.200094,0,-0,-3.33888,-2544.34417,4560.431797)">
                <path d="M891.5,764.743C886.865,760.784 880.584,756.611 872.508,753.676C872.076,753.519 861.14,749.411 850.517,749.637C845.893,749.736 839.351,750.24 830.033,753.611C823.18,756.09 817.312,759.822 816.251,760.496C815.736,760.824 815.152,761.11 815.102,761.155C813.946,762.194 812.639,763.026 811.679,764.356C811.239,764.964 808.709,768.468 808.854,774.077C809.003,779.862 811.81,783.203 812.297,783.783C815.489,787.584 819.212,787.44 819.857,787.415C822.057,787.33 824.311,786.031 824.001,786.21C823.746,786.357 824.319,786.048 824.395,786.022C825.566,785.616 831.393,783.595 839.362,782.955C839.984,782.905 845.674,782.532 850.26,783.085C853.742,783.505 861.916,784.177 871.396,789.691C874.347,791.408 876.541,793.193 878.098,794.686L878.098,815.158C862.005,820.585 851.105,835.467 843.871,850.851C839.728,859.621 839.586,870.582 843.5,879.524C847.413,888.467 856.043,899.02 891.499,899.009C926.958,898.999 935.574,888.448 939.484,879.513C943.394,870.578 943.252,859.626 939.113,850.864C931.89,835.467 920.991,820.581 904.895,815.156L904.895,794.695C911.044,788.817 920.945,784.383 930.883,783.313C935.078,782.861 935.074,782.811 939.28,782.808C940.478,782.807 946.739,782.802 954.18,784.689C956.628,785.31 958.479,785.981 958.597,786.022C958.673,786.048 959.247,786.357 958.992,786.21C958.682,786.031 960.935,787.33 963.135,787.415C963.781,787.44 967.503,787.584 970.696,783.783C971.183,783.203 973.989,779.862 974.139,774.077C974.283,768.468 971.753,764.964 971.314,764.356C969.236,761.479 968.976,761.902 966.232,760.174C958.201,755.119 950.748,752.834 949.353,752.406C945.021,751.078 938.974,749.52 930.297,749.628C928.911,749.646 915.486,750.305 902.771,757.087C898.402,759.417 894.646,762.07 891.5,764.743Z"/>
            </g>
            <g transform="matrix(7.520487,0,0,5.24846,-4963.587922,-6240.914363)">
                <path d="M759.848,1412.062C768.448,1412.062 775.431,1423.835 775.431,1440.799C775.431,1457.763 768.448,1469.536 759.848,1469.536C751.248,1469.536 744.266,1457.763 744.266,1440.799C744.266,1423.835 751.248,1412.062 759.848,1412.062Z"/>
            </g>
            <g transform="matrix(7.520487,0,0,5.24846,-4065.171465,-6240.914363)">
                <path d="M759.848,1412.062C768.448,1412.062 775.431,1423.835 775.431,1440.799C775.431,1457.763 768.448,1469.536 759.848,1469.536C751.248,1469.536 744.266,1457.763 744.266,1440.799C744.266,1423.835 751.248,1412.062 759.848,1412.062Z"/>
            </g>
        </g>
    </g>
</svg>
