<?xml version="1.0" encoding="UTF-8" standalone="no"?>
<!DOCTYPE svg PUBLIC "-//W3C//DTD SVG 1.1//EN" "http://www.w3.org/Graphics/SVG/1.1/DTD/svg11.dtd">
<svg width="100%" height="100%" viewBox="0 0 512 512" version="1.1" xmlns="http://www.w3.org/2000/svg" xmlns:xlink="http://www.w3.org/1999/xlink" xml:space="preserve" xmlns:serif="http://www.serif.com/" style="fill-rule:evenodd;clip-rule:evenodd;stroke-linejoin:round;stroke-miterlimit:2;">
    <g transform="matrix(1,0,0,1,-1200,-1200)">
        <g id="Artboard1" transform="matrix(0.213333,0,0,0.208724,1200,1200)">
            <rect x="0" y="0" width="2400" height="2453" style="fill:none;"/>
            <g transform="matrix(6.089639,-0,-0,6.224119,-302.850247,-3792.740688)">
                <path d="M142.392,866.861C129.282,858.056 116.66,847.661 104.536,838.395C95.468,831.466 83.359,824.278 67.182,821.765C63.707,821.225 60.84,818.759 59.787,815.404C58.733,812.049 59.676,808.387 62.219,805.958C67.447,800.963 72.059,795.634 75.5,790.002L68.449,788.285C65.164,787.486 62.579,784.956 61.708,781.69C60.837,778.424 61.82,774.942 64.271,772.614C64.271,772.614 72.754,764.366 78.658,749.191C80.11,745.46 81.477,740.441 81.749,735.849C79.519,698.153 80.022,677.393 81.604,666.419C82.277,661.751 83.727,655.749 86.219,650.875C88.487,646.439 91.646,642.895 95.427,640.863C102.7,636.954 113.032,633.634 138.349,657.129C152.317,670.092 161.162,680.296 165.822,686.111C174.066,684.187 186.74,682.285 199.452,682.285C212.166,682.285 224.87,684.188 233.129,686.113C237.788,680.298 246.634,670.093 260.603,657.129C285.92,633.634 296.252,636.954 303.525,640.863C307.305,642.895 310.465,646.439 312.733,650.875C315.225,655.749 316.674,661.751 317.348,666.419C318.93,677.393 319.433,698.153 317.203,735.852C317.475,740.44 318.842,745.46 320.294,749.191C321.715,752.845 323.287,756.098 324.853,758.93C323.988,759.894 323.172,760.818 322.405,761.699C317.078,760.79 310.974,760.011 304.597,759.576C304.078,758.385 303.57,757.157 303.077,755.89C300.94,750.396 299.017,742.925 298.724,736.214C298.71,735.896 298.712,735.578 298.731,735.261C300.875,699.272 300.567,679.49 299.063,669.056C298.701,666.548 298.05,663.429 296.905,660.643C296.328,659.241 295.902,657.739 294.779,657.135C293.463,656.428 292.025,656.719 289.377,658.106C285.326,660.229 280.176,664.168 273.169,670.671C252.842,689.535 244.319,701.901 244.319,701.901C241.936,705.393 237.486,706.821 233.516,705.368C228.206,703.425 213.82,700.759 199.452,700.759C185.085,700.759 170.746,703.426 165.436,705.368C161.466,706.821 157.016,705.393 154.633,701.901C154.633,701.901 146.109,689.535 125.782,670.671C118.776,664.168 113.626,660.229 109.575,658.106C106.926,656.719 105.489,656.428 104.173,657.135C103.05,657.739 102.623,659.241 102.047,660.643C100.901,663.429 100.251,666.548 99.889,669.056C98.384,679.49 98.077,699.272 100.221,735.261C100.24,735.578 100.242,735.896 100.228,736.214C99.935,742.925 98.012,750.396 95.875,755.89C93.075,763.086 89.79,769.054 86.752,773.727L90.854,774.725C93.375,775.339 95.521,776.985 96.769,779.26C98.016,781.535 98.249,784.229 97.411,786.685C94.956,793.876 90.947,800.823 85.836,807.391C98.007,811.53 107.842,817.671 115.753,823.717C127.231,832.489 139.141,842.358 151.523,850.758C150.258,852.389 149.389,853.299 149.255,853.437C145.467,857.081 143.102,861.829 142.392,866.861Z"/>
            </g>
            <g transform="matrix(6.089639,-0,-0,6.224119,273.377477,-3227.743013)">
                <path d="M199.455,887.892C185.007,887.892 171.002,883.257 157.505,876.038C138.919,866.097 121.255,851.173 104.536,838.395C95.468,831.466 83.359,824.278 67.182,821.765C63.707,821.225 60.84,818.759 59.787,815.404C58.733,812.049 59.676,808.387 62.219,805.958C67.447,800.963 72.059,795.634 75.5,790.002L68.449,788.285C65.164,787.486 62.579,784.956 61.708,781.69C60.837,778.424 61.82,774.942 64.271,772.614C64.271,772.614 72.754,764.366 78.658,749.191C80.11,745.46 81.477,740.441 81.749,735.849C79.519,698.153 80.022,677.393 81.604,666.419C82.277,661.751 83.727,655.749 86.219,650.875C88.487,646.439 91.646,642.895 95.427,640.863C102.7,636.954 113.032,633.634 138.349,657.129C152.317,670.092 161.162,680.296 165.822,686.111C174.066,684.187 186.74,682.285 199.452,682.285C212.166,682.285 224.87,684.188 233.129,686.113C237.788,680.298 246.634,670.093 260.603,657.129C285.92,633.634 296.252,636.954 303.525,640.863C307.305,642.895 310.465,646.439 312.733,650.875C315.225,655.749 316.674,661.751 317.348,666.419C318.93,677.393 319.433,698.153 317.203,735.852C317.475,740.44 318.842,745.46 320.294,749.191C326.198,764.366 334.681,772.614 334.681,772.614C337.131,774.942 338.114,778.424 337.244,781.69C336.373,784.956 333.787,787.486 330.503,788.285L323.452,790.001C326.893,795.634 331.505,800.963 336.733,805.958C339.276,808.387 340.219,812.049 339.165,815.404C338.112,818.759 335.245,821.225 331.77,821.765C315.593,824.278 303.483,831.466 294.416,838.395C277.696,851.173 260.004,866.098 241.403,876.039C227.896,883.258 213.888,887.892 199.455,887.892ZM199.455,869.418C213.97,869.418 227.813,863.163 241.166,854.824C255.811,845.677 269.808,833.951 283.199,823.717C291.11,817.671 300.944,811.53 313.116,807.391C308.005,800.823 303.996,793.876 301.541,786.685C300.703,784.229 300.936,781.535 302.183,779.26C303.43,776.985 305.577,775.339 308.098,774.725L312.2,773.727C309.162,769.054 305.877,763.086 303.077,755.89C300.94,750.396 299.017,742.925 298.724,736.214C298.71,735.896 298.712,735.578 298.731,735.261C300.875,699.272 300.567,679.49 299.063,669.056C298.701,666.548 298.05,663.429 296.905,660.643C296.328,659.241 295.902,657.739 294.779,657.135C293.463,656.428 292.025,656.719 289.377,658.106C285.326,660.229 280.176,664.168 273.169,670.671C252.842,689.535 244.319,701.901 244.319,701.901C241.936,705.393 237.486,706.821 233.516,705.368C228.206,703.425 213.82,700.759 199.452,700.759C185.085,700.759 170.746,703.426 165.436,705.368C161.466,706.821 157.016,705.393 154.633,701.901C154.633,701.901 146.109,689.535 125.782,670.671C118.776,664.168 113.626,660.229 109.575,658.106C106.926,656.719 105.489,656.428 104.173,657.135C103.05,657.739 102.623,659.241 102.047,660.643C100.901,663.429 100.251,666.548 99.889,669.056C98.384,679.49 98.077,699.272 100.221,735.261C100.24,735.578 100.242,735.896 100.228,736.214C99.935,742.925 98.012,750.396 95.875,755.89C93.075,763.086 89.79,769.054 86.752,773.727L90.854,774.725C93.375,775.339 95.521,776.985 96.769,779.26C98.016,781.535 98.249,784.229 97.411,786.685C94.956,793.876 90.947,800.823 85.836,807.391C98.007,811.53 107.842,817.671 115.753,823.717C129.145,833.951 143.124,845.679 157.756,854.826C171.094,863.165 184.927,869.418 199.455,869.418Z"/>
            </g>
            <g transform="matrix(3.530591,0,-0,-2.806656,-1659.375306,4256.813478)">
                <path d="M891.5,813C915.175,813 930.043,831.53 939.113,850.864C943.252,859.626 943.394,870.578 939.484,879.513C935.574,888.448 926.958,898.999 891.499,899.009C856.043,899.02 847.413,888.467 843.5,879.524C839.586,870.582 839.728,859.621 843.871,850.851C852.957,831.53 867.825,813 891.5,813Z"/>
            </g>
        </g>
    </g>
</svg>
