<?xml version="1.0" encoding="UTF-8" standalone="no"?>
<!DOCTYPE svg PUBLIC "-//W3C//DTD SVG 1.1//EN" "http://www.w3.org/Graphics/SVG/1.1/DTD/svg11.dtd">
<svg width="100%" height="100%" viewBox="0 0 66 114" version="1.1" xmlns="http://www.w3.org/2000/svg" xmlns:xlink="http://www.w3.org/1999/xlink" xml:space="preserve" xmlns:serif="http://www.serif.com/" style="fill-rule:evenodd;clip-rule:evenodd;stroke-linejoin:round;stroke-miterlimit:2;">
    <g transform="matrix(1,0,0,1,-731,-155.051155)">
        <g transform="matrix(1,0,0,1,20,0)">
            <g transform="matrix(0.543204,0,0,0.543204,297.648287,126.62471)">
                <path d="M868.584,95.492L832.168,95.492L832.168,106.286L863.458,106.286C864.698,106.286 865.821,106.992 865.821,108.289L865.821,177.525C865.821,178.879 864.98,180.553 861.357,180.553L845.63,180.553C845.63,180.553 851.585,193.408 861.018,207.189C870.452,220.969 880.198,232.812 881.299,233.902C882.4,234.992 882.945,236.039 881.869,237.267C880.792,238.495 867.592,247.04 866.231,247.87C864.87,248.699 862.51,248.592 860.301,245.706C858.092,242.819 853.044,236.745 845.865,224.619C838.686,212.493 833.563,200.424 833.563,200.424L832.168,201.774L833.168,249.126C833.168,253.62 833.79,257.526 833.763,259.319C833.736,261.112 832.331,262.008 830.241,262.008L813.161,262.008C811.071,262.008 809.667,261.112 809.639,259.319C809.612,257.526 810.235,253.62 810.235,249.126L811.235,201.774L809.839,200.424C809.839,200.424 804.717,212.493 797.538,224.619C790.358,236.745 785.31,242.819 783.101,245.706C780.892,248.592 778.532,248.699 777.172,247.87C775.811,247.04 762.61,238.495 761.534,237.267C760.457,236.039 761.003,234.992 762.104,233.902C763.204,232.812 772.95,220.969 782.384,207.189C791.818,193.408 797.773,180.553 797.773,180.553L782.046,180.553C778.422,180.553 777.582,178.879 777.582,177.525L777.582,108.289C777.582,106.992 778.704,106.286 779.944,106.286L811.235,106.286L811.235,95.492L774.818,95.492C773.415,95.492 771.902,94.923 770.826,91.808C769.774,88.76 769.723,82.46 769.679,78.954C769.639,75.676 771.754,74.661 773.623,74.661L811.235,74.661L811.235,55.152C811.235,53.485 812.742,52.331 815.362,52.331L828.04,52.331C830.66,52.331 832.168,53.485 832.168,55.152L832.168,74.661L869.78,74.661C871.648,74.661 873.764,75.676 873.723,78.954C873.679,82.46 873.628,88.76 872.576,91.808C871.501,94.923 869.987,95.492 868.584,95.492ZM811.235,123.412L798.344,123.412L798.344,134.856L811.235,134.856L811.235,123.412ZM811.235,151.982L798.344,151.982L798.344,163.427L811.235,163.427L811.235,151.982ZM845.058,123.412L832.168,123.412L832.168,134.856L845.058,134.856L845.058,123.412ZM845.058,151.982L832.168,151.982L832.168,163.427L845.058,163.427L845.058,151.982Z" style="fill:white;"/>
            </g>
        </g>
    </g>
</svg>
